<?xml version="1.0" encoding="UTF-8"?>
<!DOCTYPE svg PUBLIC "-//W3C//DTD SVG 1.1//EN" "http://www.w3.org/Graphics/SVG/1.1/DTD/svg11.dtd">
<svg xmlns="http://www.w3.org/2000/svg" xml:space="preserve" width="100%" height="100%" version="1.1" style="shape-rendering:geometricPrecision; text-rendering:geometricPrecision; image-rendering:optimizeQuality; fill-rule:evenodd; clip-rule:evenodd"
viewBox="0 0 1390 1390"
 xmlns:xlink="http://www.w3.org/1999/xlink">
 <defs>
  <style type="text/css">
   <![CDATA[
    .fil0 {fill:#FEFEFE}
    .fil1 {fill:#000000}
   ]]>
  </style>
 </defs>
 <g>
  <circle class="fil0" cx="695" cy="695" r="695"/>
  <path class="fil1" d="M695 0c196,0 373,81 499,212 -52,10 -103,37 -150,83 -64,60 -112,142 -147,245 -15,47 -26,94 -33,141l-133 0 92 -473 -175 0 -217 473 -70 0c-66,0 -127,14 -182,41 -69,34 -120,85 -155,154 -16,-57 -24,-118 -24,-181 0,-384 311,-695 695,-695zm666 497c19,62 29,129 29,198 0,118 -30,228 -81,326l-104 0c-129,0 -194,-90 -194,-270 0,-95 19,-188 59,-279 42,-95 89,-143 140,-144 -2,11 -3,24 -3,39 0,46 10,84 30,115 19,30 42,45 67,45 21,0 40,-10 57,-30zm-120 628c-127,161 -325,265 -546,265 -202,0 -383,-86 -510,-223 94,-42 189,-169 286,-381l111 0 -67 339 129 0 67 -339 148 0c2,125 37,216 105,274 52,43 119,65 202,65l75 0zm-565 -810l-157 366 81 0 76 -366zm-293 471c-90,0 -153,23 -189,70 -30,39 -45,81 -45,125 0,37 10,56 32,56 30,0 67,-31 111,-92 40,-52 70,-106 91,-159z"/>
 </g>
</svg>
